<?xml version="1.0" encoding="UTF-8" standalone="no"?>
<!DOCTYPE svg PUBLIC "-//W3C//DTD SVG 1.1//EN" "http://www.w3.org/Graphics/SVG/1.1/DTD/svg11.dtd">
<svg width="100%" height="100%" viewBox="0 0 16 16" version="1.1" xmlns="http://www.w3.org/2000/svg" xmlns:xlink="http://www.w3.org/1999/xlink" xml:space="preserve" xmlns:serif="http://www.serif.com/" style="fill-rule:evenodd;clip-rule:evenodd;stroke-linejoin:round;stroke-miterlimit:2;">
    <path d="M1.5,1C1.226,1 1,1.226 1,1.5L1,5.5C1,5.774 0.774,6 0.5,6C0.226,6 0,5.774 0,5.5L0,1.5C-0,0.677 0.677,0 1.5,0L5.5,0C5.774,-0 6,0.226 6,0.5C6,0.774 5.774,1 5.5,1L1.5,1ZM10,0.5C10,0.226 10.226,0 10.5,0L14.5,0C15.323,-0 16,0.677 16,1.5L16,5.5C16,5.774 15.774,6 15.5,6C15.226,6 15,5.774 15,5.5L15,1.5C15,1.226 14.774,1 14.5,1L10.5,1C10.226,1 10,0.774 10,0.5ZM0.5,10C0.774,10 1,10.226 1,10.5L1,14.5C1,14.774 1.226,15 1.5,15L5.5,15C5.774,15 6,15.226 6,15.5C6,15.774 5.774,16 5.5,16L1.5,16C0.677,16 0,15.323 0,14.5L0,10.5C-0,10.226 0.226,10 0.5,10ZM15.5,10C15.774,10 16,10.226 16,10.5L16,14.5C16,15.323 15.323,16 14.5,16L10.5,16C10.226,16 10,15.774 10,15.5C10,15.226 10.226,15 10.5,15L14.5,15C14.774,15 15,14.774 15,14.5L15,10.5C15,10.226 15.226,10 15.5,10Z" style="fill-rule:nonzero;"/>
    <g transform="matrix(0.928075,0,0,0.893633,8,2.6382)">
        <circle cx="0" cy="6" r="1"/>
    </g>
</svg>
